<svg width="500" height="272" viewBox="0 0 500 272" fill="none" xmlns="http://www.w3.org/2000/svg">
<line x1="113.387" y1="106.05" x2="163.93" y2="106.039" stroke="#5452F6" stroke-width="1.04223"/>
<path d="M158.718 101.297L164.191 106.247L158.72 110.938" stroke="#5452F6" stroke-width="1.04223" stroke-linecap="round" stroke-linejoin="round"/>
<circle cx="111.042" cy="106.311" r="2.86614" stroke="#5452F6" stroke-width="1.04223"/>
<path d="M398.518 23.1499L440.305 23.1414C451.817 23.139 461.152 32.4696 461.154 43.9818L461.165 95.6179" stroke="#5452F6" stroke-width="1.04223" stroke-linecap="round" stroke-linejoin="round"/>
<path d="M460.768 96.2226L456.991 92.0605C456.687 91.7257 456.924 91.1893 457.377 91.1892L464.721 91.1877C465.166 91.1876 465.406 91.7098 465.117 92.0479L461.549 96.2114C461.345 96.4496 460.979 96.4548 460.768 96.2226Z" fill="#5452F6"/>
<circle r="2.86614" transform="matrix(0.000204573 1 1 -0.000204573 396.172 22.8895)" fill="#5452F6"/>
<path d="M267.833 107.3L297.115 107.294C308.627 107.291 317.957 97.9571 317.955 86.4449L317.95 59.8202" stroke="#5452F6" stroke-width="1.04223" stroke-linecap="round" stroke-linejoin="round"/>
<path d="M317.552 59.2155L313.776 63.3791C313.473 63.714 313.711 64.2503 314.163 64.2502L321.507 64.2487C321.952 64.2487 322.192 63.7264 321.902 63.3884L318.334 59.2263C318.129 58.9882 317.763 58.9831 317.552 59.2155Z" fill="#5452F6"/>
<circle cx="265.488" cy="107.561" r="2.86614" transform="rotate(-90.0117 265.488 107.561)" fill="#5452F6"/>
<line x1="210.932" y1="24.14" x2="272.73" y2="24.1274" stroke="#5452F6" stroke-width="1.04223" stroke-dasharray="2.61 4.17"/>
<path d="M267.518 18.7598L272.99 23.7093L267.52 28.4004" stroke="#5452F6" stroke-width="1.04223" stroke-linecap="round" stroke-linejoin="round"/>
<circle cx="208.586" cy="24.4012" r="2.86614" stroke="#5452F6" stroke-width="1.04223"/>
<path d="M147.621 213.236L147.617 196.396C147.616 190.64 152.281 185.973 158.038 185.972L271.733 185.949C277.489 185.948 282.156 190.613 282.158 196.369L282.161 213.209" stroke="#5452F6" stroke-width="1.04223"/>
<line x1="214.312" y1="185.713" x2="214.306" y2="157.052" stroke="#5452F6" stroke-width="1.04223"/>
<path d="M287.124 207.997L282.301 213.209L277.731 207.999" stroke="#5452F6" stroke-width="1.04223" stroke-linecap="round" stroke-linejoin="round"/>
<path d="M152.584 208.024L147.761 213.237L143.191 208.026" stroke="#5452F6" stroke-width="1.04223" stroke-linecap="round" stroke-linejoin="round"/>
<circle cx="214.044" cy="154.185" r="2.86614" stroke="#5452F6" stroke-width="1.04223"/>
<path d="M458.049 109.881C459.677 108.252 462.317 108.252 463.945 109.879L496.358 142.279C497.986 143.907 497.987 146.546 496.359 148.175L463.959 180.588C462.332 182.216 459.692 182.217 458.064 180.589L425.651 148.189C424.022 146.562 424.022 143.922 425.649 142.294L458.049 109.881Z" fill="#C4C4C4"/>
<g filter="url(#filter0_b_43_1636)">
<path fill-rule="evenodd" clip-rule="evenodd" d="M297.637 0C291.766 0 287.007 4.75915 287.007 10.6299V38.1425C287.007 44.0133 291.766 48.7724 297.637 48.7724H373.297C379.167 48.7724 383.926 44.0133 383.926 38.1425V10.6299C383.926 4.75916 379.167 0 373.297 0H297.637ZM10.6299 81.2873C4.75916 81.2873 0 86.0465 0 91.9172V119.43C0 125.301 4.75917 130.06 10.6299 130.06H86.2897C92.1604 130.06 96.9195 125.301 96.9195 119.43V91.9172C96.9195 86.0465 92.1604 81.2873 86.2896 81.2873H10.6299ZM147.568 223.228C134.1 223.228 123.182 234.146 123.182 247.614C123.182 261.082 134.1 272 147.568 272C161.036 272 171.954 261.082 171.954 247.614C171.954 234.146 161.036 223.228 147.568 223.228ZM258.244 247.614C258.244 234.146 269.162 223.228 282.63 223.228C296.098 223.228 307.016 234.146 307.016 247.614C307.016 261.082 296.098 272 282.63 272C269.162 272 258.244 261.082 258.244 247.614ZM123.182 19.3839C123.182 13.5132 127.941 8.754 133.811 8.754H185.71C191.581 8.754 196.34 13.5132 196.34 19.3839V27.5126C196.34 33.3833 191.581 38.1425 185.71 38.1425H133.811C127.941 38.1425 123.182 33.3833 123.182 27.5126V19.3839ZM216.331 71.1114C214.703 69.4837 212.063 69.4842 210.435 71.1126L178.036 103.526C176.408 105.154 176.409 107.794 178.037 109.421L210.45 141.821C212.078 143.449 214.718 143.448 216.346 141.82L248.745 109.407C250.373 107.778 250.373 105.139 248.744 103.511L216.331 71.1114Z" fill="url(#paint0_radial_43_1636)"/>
</g>
<path d="M46.8985 71.9082L46.8984 44.3021C46.8983 32.7915 56.2282 23.4597 67.7388 23.4573L108.124 23.4491" stroke="#5452F6" stroke-width="1.04223" stroke-linecap="round" stroke-linejoin="round"/>
<path d="M108.729 23.846L104.567 27.6231C104.233 27.9269 103.696 27.6894 103.696 27.2373L103.695 19.8929C103.694 19.4477 104.217 19.2074 104.555 19.4971L108.718 23.0643C108.956 23.2684 108.962 23.6352 108.729 23.846Z" fill="#5452F6"/>
<circle r="2.86614" transform="matrix(1 -0.000204516 -0.000204516 -1 46.637 71.6484)" fill="#5452F6"/>
<path d="M23.1518 103.125V111.296H25.008V108.051H28.5802V106.347H25.008V104.829H29.2573V103.125H23.1518ZM31.776 111.296V105.226H30.0249V111.296H31.776ZM30.1183 104.49C30.3284 104.689 30.5853 104.794 30.9005 104.794C31.2157 104.794 31.4725 104.689 31.671 104.49C31.8811 104.292 31.9862 104.035 31.9862 103.72C31.9862 103.405 31.8811 103.148 31.671 102.949C31.4725 102.751 31.2157 102.646 30.9005 102.646C30.5853 102.646 30.3284 102.751 30.1183 102.949C29.9198 103.148 29.8148 103.405 29.8148 103.72C29.8148 104.035 29.9198 104.292 30.1183 104.49ZM34.5122 105.226H32.761V111.296H34.5122V108.028C34.5122 107.316 35.0375 106.779 35.7379 106.779C35.9948 106.779 36.2049 106.837 36.3683 106.942V105.074C35.5395 105.074 34.9207 105.331 34.5122 105.856V105.226ZM41.6736 106.732C41.5218 105.693 40.6579 105.074 39.2454 105.074C37.7628 105.074 36.7821 105.681 36.7821 107.024C36.7821 107.923 37.2491 108.46 38.3815 108.775L39.4905 109.102C39.8991 109.218 40.0976 109.37 40.0976 109.569C40.0976 109.849 39.7707 110.012 39.3037 110.012C38.7317 110.012 38.3815 109.814 38.2647 109.405L36.6537 109.627C36.8288 110.783 37.7394 111.448 39.2687 111.448C40.7747 111.448 41.767 110.771 41.767 109.499C41.767 108.576 41.265 108.016 40.0392 107.631L38.9535 107.28C38.6383 107.164 38.4749 107.024 38.4749 106.872C38.4749 106.603 38.7084 106.475 39.1637 106.475C39.6656 106.475 39.9692 106.65 40.0742 106.989L41.6736 106.732ZM42.1343 106.743H42.9632V109.358C42.9632 109.907 43.1617 110.374 43.5703 110.748C43.9789 111.11 44.4925 111.296 45.0879 111.296H46.0919V109.662H45.3798C44.9945 109.662 44.7143 109.394 44.7143 109.02V106.743H46.0919V105.226H44.7143V104.047H42.9632V105.226H42.1343V106.743ZM55.5278 104.887C55.3761 104.339 55.0375 103.883 54.4888 103.521C53.9518 103.16 53.3098 102.973 52.5743 102.973C51.7454 102.973 51.0683 103.206 50.543 103.673C50.0293 104.128 49.7725 104.736 49.7725 105.483C49.7725 105.961 49.9243 106.382 50.0994 106.673C50.2745 106.965 50.6831 107.245 50.9282 107.421C51.0567 107.502 51.2434 107.584 51.4886 107.689L52.0606 107.899C52.2007 107.934 52.4109 108.004 52.6794 108.086L52.7961 108.121C53.2631 108.273 53.5432 108.366 53.8117 108.6C53.9518 108.716 54.0219 108.845 54.0219 108.997C54.0219 109.429 53.4849 109.744 52.8194 109.744C52.084 109.744 51.5236 109.382 51.3952 108.915L49.539 109.358C49.7141 109.977 50.0877 110.479 50.6831 110.864C51.2785 111.25 51.9906 111.448 52.8194 111.448C53.7184 111.448 54.4538 111.215 55.0259 110.736C55.5979 110.257 55.8781 109.627 55.8781 108.833C55.8314 107.829 55.4344 107.257 54.7574 106.895C54.2904 106.615 54.0336 106.533 53.5316 106.382C52.8778 106.183 52.4692 106.055 52.3058 105.996C51.8505 105.81 51.6287 105.588 51.6287 105.343C51.6287 104.957 52.049 104.677 52.6093 104.677C53.158 104.677 53.5899 104.957 53.695 105.319L55.5278 104.887ZM56.1684 106.743H56.9972V109.358C56.9972 109.907 57.1957 110.374 57.6043 110.748C58.0129 111.11 58.5265 111.296 59.1219 111.296H60.1259V109.662H59.4138C59.0285 109.662 58.7483 109.394 58.7483 109.02V106.743H60.1259V105.226H58.7483V104.047H56.9972V105.226H56.1684V106.743ZM67.0389 108.892C67.0856 108.693 67.1089 108.483 67.1089 108.261C67.1089 107.362 66.8054 106.603 66.1867 105.996C65.5679 105.378 64.8091 105.074 63.8985 105.074C62.9763 105.074 62.2175 105.378 61.5987 105.996C60.98 106.603 60.6765 107.362 60.6765 108.261C60.6765 109.172 60.9917 109.931 61.6221 110.538C62.2525 111.145 63.0463 111.448 63.9919 111.448C65.2878 111.448 66.3501 110.818 66.8988 109.802L65.206 109.417C64.9025 109.779 64.5056 109.954 64.0036 109.954C63.2915 109.954 62.7195 109.534 62.521 108.892H67.0389ZM62.5327 107.596C62.7311 106.977 63.2798 106.568 63.8985 106.568C64.5523 106.568 65.101 106.977 65.3228 107.596H62.5327ZM69.5687 113.923V110.888C70.0707 111.261 70.6194 111.448 71.2381 111.448C72.0553 111.448 72.7441 111.145 73.2927 110.538C73.8414 109.919 74.1216 109.16 74.1216 108.261C74.1216 107.351 73.8414 106.592 73.2927 105.985C72.7441 105.378 72.0553 105.074 71.2381 105.074C70.6077 105.074 70.0473 105.261 69.5687 105.634V105.226H67.8176V113.923H69.5687ZM70.9462 106.802C71.6934 106.802 72.2888 107.432 72.2888 108.273C72.2888 108.681 72.1604 109.02 71.8918 109.3C71.635 109.58 71.3198 109.72 70.9462 109.72C70.1874 109.72 69.592 109.078 69.592 108.273C69.592 107.432 70.1874 106.802 70.9462 106.802Z" fill="white"/>
<path d="M139.061 20.6219L138.337 20.8332C138.288 20.6164 138.147 20.4349 137.914 20.2886C137.687 20.1368 137.419 20.061 137.11 20.061C136.768 20.061 136.487 20.145 136.264 20.313C136.042 20.4755 135.931 20.6815 135.931 20.9307C135.931 21.2017 136.083 21.413 136.386 21.5648C136.625 21.6786 136.991 21.7978 137.484 21.9225C137.885 22.0254 138.196 22.1311 138.418 22.2395C138.939 22.4833 139.212 22.9087 139.239 23.5157C139.239 24.0251 139.044 24.4369 138.654 24.7513C138.275 25.0656 137.782 25.2227 137.175 25.2227C136.627 25.2227 136.161 25.0954 135.777 24.8407C135.392 24.5914 135.148 24.2662 135.045 23.8652L135.777 23.6457C135.82 23.895 135.972 24.1037 136.232 24.2717C136.497 24.4342 136.812 24.5155 137.175 24.5155C137.554 24.5155 137.871 24.4288 138.126 24.2554C138.381 24.0766 138.508 23.849 138.508 23.5726C138.508 23.2908 138.372 23.0794 138.101 22.9385C137.863 22.8139 137.589 22.7136 137.28 22.6378L136.939 22.5484L136.622 22.4508L136.289 22.337C136.272 22.3316 136.248 22.3235 136.216 22.3126C136.188 22.2964 136.153 22.2801 136.11 22.2639C136.067 22.2422 136.029 22.2232 135.996 22.207C135.861 22.1419 135.701 22.0254 135.516 21.8574C135.332 21.6732 135.224 21.3805 135.191 20.9795C135.191 20.4972 135.37 20.107 135.728 19.809C136.091 19.5055 136.549 19.3538 137.102 19.3538C137.6 19.3538 138.026 19.473 138.378 19.7114C138.735 19.9445 138.963 20.2479 139.061 20.6219ZM144.306 23.2556H140.673C140.721 23.6349 140.889 23.9519 141.177 24.2066C141.458 24.4559 141.805 24.5805 142.217 24.5805C142.754 24.5805 143.171 24.3773 143.469 23.9709L144.135 24.1822C143.94 24.5074 143.672 24.7621 143.331 24.9463C142.995 25.1306 142.623 25.2227 142.217 25.2227C141.578 25.2227 141.041 25.0141 140.608 24.5968C140.179 24.1741 139.965 23.6485 139.965 23.0198C139.965 22.3912 140.174 21.8683 140.591 21.451C141.009 21.0283 141.526 20.8169 142.144 20.8169C142.767 20.8169 143.285 21.0283 143.696 21.451C144.114 21.8683 144.322 22.3912 144.322 23.0198C144.322 23.0361 144.317 23.1147 144.306 23.2556ZM140.681 22.7028H143.615C143.55 22.3397 143.379 22.039 143.103 21.8005C142.832 21.5675 142.507 21.451 142.128 21.451C141.759 21.451 141.442 21.5675 141.177 21.8005C140.911 22.0335 140.746 22.3343 140.681 22.7028ZM149.193 22.0932L148.51 22.2964C148.386 22.0525 148.204 21.8601 147.966 21.7192C147.733 21.5729 147.47 21.4998 147.177 21.4998C146.749 21.4998 146.394 21.6461 146.112 21.9387C145.825 22.2259 145.682 22.5863 145.682 23.0198C145.682 23.4479 145.825 23.811 146.112 24.1091C146.4 24.3963 146.755 24.5399 147.177 24.5399C147.47 24.5399 147.733 24.4695 147.966 24.3286C148.204 24.1822 148.386 23.9871 148.51 23.7433L149.193 23.9465C149.02 24.3421 148.752 24.6537 148.388 24.8813C148.031 25.1089 147.627 25.2227 147.177 25.2227C146.554 25.2227 146.028 25.0141 145.6 24.5968C145.183 24.1687 144.974 23.643 144.974 23.0198C144.974 22.3912 145.183 21.8683 145.6 21.451C146.023 21.0283 146.549 20.8169 147.177 20.8169C147.627 20.8169 148.031 20.9307 148.388 21.1583C148.752 21.386 149.02 21.6976 149.193 22.0932ZM150.466 24.5968C150.049 24.1687 149.841 23.643 149.841 23.0198C149.841 22.3912 150.049 21.8683 150.466 21.451C150.889 21.0283 151.415 20.8169 152.043 20.8169C152.672 20.8169 153.198 21.0283 153.62 21.451C154.043 21.8683 154.254 22.3912 154.254 23.0198C154.254 23.6485 154.043 24.1741 153.62 24.5968C153.192 25.0141 152.667 25.2227 152.043 25.2227C151.42 25.2227 150.895 25.0141 150.466 24.5968ZM152.043 24.5399C152.472 24.5399 152.829 24.3963 153.116 24.1091C153.404 23.811 153.547 23.4479 153.547 23.0198C153.547 22.5863 153.404 22.2259 153.116 21.9387C152.829 21.6461 152.472 21.4998 152.043 21.4998C151.615 21.4998 151.26 21.6461 150.979 21.9387C150.691 22.2259 150.548 22.5863 150.548 23.0198C150.548 23.4479 150.691 23.811 150.979 24.1091C151.266 24.3963 151.621 24.5399 152.043 24.5399ZM155.188 25.1333V20.9064H155.871V21.6136C156.207 21.0825 156.708 20.8169 157.375 20.8169C157.862 20.8169 158.266 20.9768 158.586 21.2965C158.911 21.6108 159.074 22.0119 159.074 22.4996V25.1333H158.391V22.6784C158.391 22.337 158.274 22.0498 158.041 21.8168C157.814 21.5838 157.529 21.4672 157.188 21.4672C156.819 21.4672 156.508 21.5865 156.253 21.8249C155.998 22.0633 155.871 22.3533 155.871 22.6947V25.1333H155.188ZM162.074 20.8169C162.709 20.8169 163.223 21.0473 163.619 21.5079V19.0367H164.302V25.1333H163.619V24.5318C163.223 24.9924 162.709 25.2227 162.074 25.2227C161.484 25.2227 160.988 25.0141 160.587 24.5968C160.191 24.1795 159.994 23.6539 159.994 23.0198C159.994 22.3858 160.191 21.8628 160.587 21.451C160.983 21.0283 161.478 20.8169 162.074 20.8169ZM162.148 21.4998C161.741 21.4998 161.397 21.6461 161.115 21.9387C160.839 22.2259 160.701 22.5863 160.701 23.0198C160.701 23.4534 160.839 23.8164 161.115 24.1091C161.402 24.3963 161.747 24.5399 162.148 24.5399C162.559 24.5399 162.904 24.3963 163.18 24.1091C163.462 23.8219 163.603 23.4588 163.603 23.0198C163.603 22.5809 163.462 22.2205 163.18 21.9387C162.904 21.6461 162.559 21.4998 162.148 21.4998ZM171.536 20.6219L170.812 20.8332C170.764 20.6164 170.623 20.4349 170.39 20.2886C170.162 20.1368 169.894 20.061 169.585 20.061C169.244 20.061 168.962 20.145 168.74 20.313C168.517 20.4755 168.406 20.6815 168.406 20.9307C168.406 21.2017 168.558 21.413 168.862 21.5648C169.1 21.6786 169.466 21.7978 169.959 21.9225C170.36 22.0254 170.672 22.1311 170.894 22.2395C171.414 22.4833 171.688 22.9087 171.715 23.5157C171.715 24.0251 171.52 24.4369 171.129 24.7513C170.75 25.0656 170.257 25.2227 169.65 25.2227C169.103 25.2227 168.637 25.0954 168.252 24.8407C167.867 24.5914 167.623 24.2662 167.52 23.8652L168.252 23.6457C168.295 23.895 168.447 24.1037 168.707 24.2717C168.973 24.4342 169.287 24.5155 169.65 24.5155C170.029 24.5155 170.346 24.4288 170.601 24.2554C170.856 24.0766 170.983 23.849 170.983 23.5726C170.983 23.2908 170.848 23.0794 170.577 22.9385C170.338 22.8139 170.065 22.7136 169.756 22.6378L169.414 22.5484L169.097 22.4508L168.764 22.337C168.748 22.3316 168.723 22.3235 168.691 22.3126C168.664 22.2964 168.628 22.2801 168.585 22.2639C168.542 22.2422 168.504 22.2232 168.471 22.207C168.336 22.1419 168.176 22.0254 167.992 21.8574C167.807 21.6732 167.699 21.3805 167.667 20.9795C167.667 20.4972 167.845 20.107 168.203 19.809C168.566 19.5055 169.024 19.3538 169.577 19.3538C170.075 19.3538 170.501 19.473 170.853 19.7114C171.211 19.9445 171.438 20.2479 171.536 20.6219ZM172.205 21.5079V20.9064H172.888V20.061H173.571V20.9064H174.749V21.5079H173.571V23.8083C173.571 23.998 173.627 24.1579 173.741 24.2879C173.86 24.4126 174.007 24.4749 174.18 24.4749H174.749V25.1333H174.131C173.779 25.1333 173.484 25.0141 173.245 24.7756C173.007 24.5372 172.888 24.2418 172.888 23.8896V21.5079H172.205ZM179.695 23.2556H176.061C176.11 23.6349 176.278 23.9519 176.565 24.2066C176.847 24.4559 177.194 24.5805 177.606 24.5805C178.142 24.5805 178.559 24.3773 178.857 23.9709L179.524 24.1822C179.329 24.5074 179.061 24.7621 178.719 24.9463C178.383 25.1306 178.012 25.2227 177.606 25.2227C176.966 25.2227 176.43 25.0141 175.996 24.5968C175.568 24.1741 175.354 23.6485 175.354 23.0198C175.354 22.3912 175.563 21.8683 175.98 21.451C176.397 21.0283 176.915 20.8169 177.532 20.8169C178.156 20.8169 178.673 21.0283 179.085 21.451C179.502 21.8683 179.711 22.3912 179.711 23.0198C179.711 23.0361 179.706 23.1147 179.695 23.2556ZM176.069 22.7028H179.004C178.939 22.3397 178.768 22.039 178.492 21.8005C178.221 21.5675 177.896 21.451 177.516 21.451C177.148 21.451 176.831 21.5675 176.565 21.8005C176.3 22.0335 176.134 22.3343 176.069 22.7028ZM181.265 26.9623H180.582V20.9064H181.265V21.5079C181.661 21.0473 182.173 20.8169 182.802 20.8169C183.398 20.8169 183.894 21.0283 184.289 21.451C184.69 21.8683 184.891 22.3912 184.891 23.0198C184.891 23.643 184.69 24.1687 184.289 24.5968C183.888 25.0141 183.392 25.2227 182.802 25.2227C182.173 25.2227 181.661 24.9924 181.265 24.5318V26.9623ZM182.728 21.4998C182.322 21.4998 181.978 21.6461 181.696 21.9387C181.42 22.2259 181.282 22.5863 181.282 23.0198C181.282 23.4534 181.42 23.8164 181.696 24.1091C181.983 24.3963 182.327 24.5399 182.728 24.5399C183.14 24.5399 183.484 24.3963 183.761 24.1091C184.043 23.8219 184.183 23.4588 184.183 23.0198C184.183 22.5809 184.043 22.2205 183.761 21.9387C183.484 21.6461 183.14 21.4998 182.728 21.4998Z" fill="white"/>
<path d="M200.964 103.914H198.834V103.231H203.825V103.914H201.695V108.921H200.964V103.914ZM204.653 106.532V108.921H203.97V104.694H204.653V105.41C204.973 104.873 205.474 104.605 206.157 104.605H206.271V105.361C206.184 105.328 206.084 105.312 205.97 105.312C205.596 105.312 205.284 105.429 205.035 105.662C204.78 105.9 204.653 106.19 204.653 106.532ZM208.682 104.605C209.316 104.605 209.83 104.835 210.226 105.296V104.694H210.909V108.921H210.226V108.32C209.83 108.78 209.316 109.011 208.682 109.011C208.091 109.011 207.595 108.802 207.194 108.385C206.798 107.968 206.601 107.442 206.601 106.808C206.601 106.174 206.798 105.651 207.194 105.239C207.59 104.816 208.085 104.605 208.682 104.605ZM208.755 105.288C208.348 105.288 208.004 105.434 207.722 105.727C207.446 106.014 207.308 106.374 207.308 106.808C207.308 107.241 207.446 107.605 207.722 107.897C208.01 108.184 208.354 108.328 208.755 108.328C209.167 108.328 209.511 108.184 209.787 107.897C210.069 107.61 210.21 107.247 210.21 106.808C210.21 106.369 210.069 106.009 209.787 105.727C209.511 105.434 209.167 105.288 208.755 105.288ZM213.921 104.605C214.555 104.605 215.07 104.835 215.465 105.296V102.825H216.148V108.921H215.465V108.32C215.07 108.78 214.555 109.011 213.921 109.011C213.33 109.011 212.834 108.802 212.433 108.385C212.038 107.968 211.84 107.442 211.84 106.808C211.84 106.174 212.038 105.651 212.433 105.239C212.829 104.816 213.325 104.605 213.921 104.605ZM213.994 105.288C213.588 105.288 213.243 105.434 212.962 105.727C212.685 106.014 212.547 106.374 212.547 106.808C212.547 107.241 212.685 107.605 212.962 107.897C213.249 108.184 213.593 108.328 213.994 108.328C214.406 108.328 214.75 108.184 215.026 107.897C215.308 107.61 215.449 107.247 215.449 106.808C215.449 106.369 215.308 106.009 215.026 105.727C214.75 105.434 214.406 105.288 213.994 105.288ZM217.981 108.921H217.299V104.694H217.981V108.921ZM217.299 104.004C217.212 103.911 217.168 103.798 217.168 103.662C217.168 103.527 217.212 103.416 217.299 103.329C217.391 103.237 217.504 103.191 217.64 103.191C217.775 103.191 217.889 103.237 217.981 103.329C218.073 103.416 218.12 103.527 218.12 103.662C218.12 103.798 218.073 103.911 217.981 104.004C217.889 104.09 217.775 104.134 217.64 104.134C217.504 104.134 217.391 104.09 217.299 104.004ZM219.132 108.921V104.694H219.815V105.402C220.151 104.871 220.652 104.605 221.319 104.605C221.807 104.605 222.21 104.765 222.53 105.085C222.855 105.399 223.018 105.8 223.018 106.288V108.921H222.335V106.467C222.335 106.125 222.218 105.838 221.985 105.605C221.758 105.372 221.473 105.255 221.132 105.255C220.763 105.255 220.452 105.375 220.197 105.613C219.942 105.851 219.815 106.141 219.815 106.483V108.921H219.132ZM226.019 109.011C225.428 109.011 224.932 108.802 224.531 108.385C224.135 107.968 223.938 107.442 223.938 106.808C223.938 106.174 224.135 105.651 224.531 105.239C224.927 104.816 225.423 104.605 226.019 104.605C226.653 104.605 227.168 104.835 227.563 105.296V104.694H228.246V108.743C228.246 109.344 228.04 109.843 227.628 110.238C227.211 110.639 226.704 110.84 226.108 110.84C225.696 110.84 225.309 110.737 224.946 110.531C224.593 110.325 224.336 110.065 224.173 109.751L224.856 109.531C224.97 109.715 225.138 109.864 225.36 109.978C225.588 110.097 225.829 110.157 226.084 110.157C226.501 110.157 226.853 110.021 227.14 109.751C227.428 109.48 227.569 109.144 227.563 108.743V108.32C227.168 108.78 226.653 109.011 226.019 109.011ZM226.092 105.288C225.685 105.288 225.341 105.434 225.059 105.727C224.783 106.014 224.645 106.374 224.645 106.808C224.645 107.241 224.783 107.605 225.059 107.897C225.347 108.184 225.691 108.328 226.092 108.328C226.504 108.328 226.848 108.184 227.124 107.897C227.406 107.61 227.547 107.247 227.547 106.808C227.547 106.369 227.406 106.009 227.124 105.727C226.848 105.434 226.504 105.288 226.092 105.288Z" fill="white"/>
<path d="M320.11 22.0015H317.981V21.3187H322.972V22.0015H320.842V27.0088H320.11V22.0015ZM323.768 27.0088V20.9122H324.451V23.489C324.787 22.958 325.291 22.6924 325.963 22.6924C326.451 22.6924 326.86 22.8523 327.19 23.172C327.515 23.4863 327.678 23.8874 327.678 24.3751V27.0088H326.995V24.5539C326.995 24.2125 326.879 23.9253 326.646 23.6923C326.413 23.4592 326.123 23.3427 325.776 23.3427C325.402 23.3427 325.088 23.462 324.833 23.7004C324.578 23.9388 324.451 24.2288 324.451 24.5702V27.0088H323.768ZM329.5 27.0088H328.817V22.7818H329.5V27.0088ZM328.817 22.0909C328.73 21.9988 328.687 21.885 328.687 21.7495C328.687 21.614 328.73 21.5029 328.817 21.4162C328.909 21.3241 329.023 21.278 329.158 21.278C329.294 21.278 329.407 21.3241 329.5 21.4162C329.592 21.5029 329.638 21.614 329.638 21.7495C329.638 21.885 329.592 21.9988 329.5 22.0909C329.407 22.1776 329.294 22.221 329.158 22.221C329.023 22.221 328.909 22.1776 328.817 22.0909ZM331.333 24.6189V27.0088H330.65V22.7818H331.333V23.4972C331.653 22.9607 332.154 22.6924 332.837 22.6924H332.951V23.4484C332.864 23.4159 332.764 23.3996 332.65 23.3996C332.276 23.3996 331.965 23.5161 331.715 23.7492C331.461 23.9876 331.333 24.2775 331.333 24.6189ZM335.362 22.6924C335.996 22.6924 336.511 22.9227 336.906 23.3834V20.9122H337.589V27.0088H336.906V26.4073C336.511 26.8679 335.996 27.0982 335.362 27.0982C334.771 27.0982 334.275 26.8896 333.874 26.4723C333.479 26.055 333.281 25.5294 333.281 24.8953C333.281 24.2613 333.479 23.7383 333.874 23.3265C334.27 22.9038 334.766 22.6924 335.362 22.6924ZM335.435 23.3752C335.028 23.3752 334.684 23.5216 334.403 23.8142C334.126 24.1014 333.988 24.4618 333.988 24.8953C333.988 25.3289 334.126 25.6919 334.403 25.9846C334.69 26.2718 335.034 26.4154 335.435 26.4154C335.847 26.4154 336.191 26.2718 336.467 25.9846C336.749 25.6974 336.89 25.3343 336.89 24.8953C336.89 24.4564 336.749 24.096 336.467 23.8142C336.191 23.5216 335.847 23.3752 335.435 23.3752ZM344.823 22.4973L344.1 22.7087C344.051 22.4919 343.91 22.3104 343.677 22.1641C343.449 22.0123 343.181 21.9365 342.872 21.9365C342.531 21.9365 342.249 22.0205 342.027 22.1884C341.805 22.351 341.694 22.557 341.694 22.8062C341.694 23.0772 341.845 23.2885 342.149 23.4403C342.387 23.5541 342.753 23.6733 343.246 23.7979C343.647 23.9009 343.959 24.0066 344.181 24.115C344.701 24.3588 344.975 24.7842 345.002 25.3912C345.002 25.9006 344.807 26.3124 344.417 26.6267C344.037 26.941 343.544 27.0982 342.937 27.0982C342.39 27.0982 341.924 26.9709 341.539 26.7162C341.154 26.4669 340.911 26.1417 340.808 25.7407L341.539 25.5212C341.583 25.7705 341.734 25.9791 341.994 26.1471C342.26 26.3097 342.574 26.391 342.937 26.391C343.317 26.391 343.634 26.3043 343.888 26.1309C344.143 25.9521 344.27 25.7244 344.27 25.4481C344.27 25.1663 344.135 24.9549 343.864 24.814C343.626 24.6894 343.352 24.5891 343.043 24.5133L342.702 24.4239L342.385 24.3263L342.051 24.2125C342.035 24.2071 342.011 24.199 341.978 24.1881C341.951 24.1719 341.916 24.1556 341.872 24.1393C341.829 24.1177 341.791 24.0987 341.759 24.0824C341.623 24.0174 341.463 23.9009 341.279 23.7329C341.095 23.5487 340.986 23.256 340.954 22.855C340.954 22.3727 341.133 21.9825 341.49 21.6845C341.853 21.381 342.311 21.2293 342.864 21.2293C343.363 21.2293 343.788 21.3485 344.14 21.5869C344.498 21.8199 344.726 22.1234 344.823 22.4973ZM345.492 23.3834V22.7818H346.175V21.9365H346.858V22.7818H348.036V23.3834H346.858V25.6838C346.858 25.8735 346.915 26.0333 347.029 26.1634C347.148 26.288 347.294 26.3504 347.467 26.3504H348.036V27.0088H347.419C347.066 27.0088 346.771 26.8896 346.533 26.6511C346.294 26.4127 346.175 26.1173 346.175 25.7651V23.3834H345.492ZM352.982 25.1311H349.348C349.397 25.5104 349.565 25.8274 349.852 26.0821C350.134 26.3314 350.481 26.456 350.893 26.456C351.429 26.456 351.847 26.2528 352.145 25.8464L352.811 26.0577C352.616 26.3829 352.348 26.6376 352.007 26.8218C351.671 27.0061 351.299 27.0982 350.893 27.0982C350.253 27.0982 349.717 26.8896 349.283 26.4723C348.855 26.0496 348.641 25.5239 348.641 24.8953C348.641 24.2667 348.85 23.7437 349.267 23.3265C349.684 22.9038 350.202 22.6924 350.82 22.6924C351.443 22.6924 351.96 22.9038 352.372 23.3265C352.79 23.7437 352.998 24.2667 352.998 24.8953C352.998 24.9116 352.993 24.9902 352.982 25.1311ZM349.357 24.5783H352.291C352.226 24.2152 352.055 23.9145 351.779 23.676C351.508 23.443 351.183 23.3265 350.803 23.3265C350.435 23.3265 350.118 23.443 349.852 23.676C349.587 23.909 349.422 24.2098 349.357 24.5783ZM354.553 28.8378H353.87V22.7818H354.553V23.3834C354.948 22.9227 355.46 22.6924 356.089 22.6924C356.685 22.6924 357.181 22.9038 357.576 23.3265C357.977 23.7437 358.178 24.2667 358.178 24.8953C358.178 25.5185 357.977 26.0442 357.576 26.4723C357.175 26.8896 356.68 27.0982 356.089 27.0982C355.46 27.0982 354.948 26.8679 354.553 26.4073V28.8378ZM356.016 23.3752C355.609 23.3752 355.265 23.5216 354.983 23.8142C354.707 24.1014 354.569 24.4618 354.569 24.8953C354.569 25.3289 354.707 25.6919 354.983 25.9846C355.271 26.2718 355.615 26.4154 356.016 26.4154C356.428 26.4154 356.772 26.2718 357.048 25.9846C357.33 25.6974 357.471 25.3343 357.471 24.8953C357.471 24.4564 357.33 24.096 357.048 23.8142C356.772 23.5216 356.428 23.3752 356.016 23.3752Z" fill="white"/>
<path d="M138.489 243.047H141.325V243.52H138.996V244.758H141.038V245.231H138.996V246.514H141.354V246.986H138.489V243.047ZM143.173 243.998C143.612 243.998 143.969 244.158 144.243 244.476V244.06H144.715V246.986H144.243V246.57C143.969 246.889 143.612 247.048 143.173 247.048C142.764 247.048 142.421 246.904 142.143 246.615C141.87 246.326 141.733 245.962 141.733 245.523C141.733 245.084 141.87 244.722 142.143 244.437C142.417 244.144 142.761 243.998 143.173 243.998ZM143.224 244.471C142.943 244.471 142.704 244.572 142.509 244.775C142.318 244.974 142.222 245.223 142.222 245.523C142.222 245.823 142.318 246.075 142.509 246.277C142.708 246.476 142.946 246.576 143.224 246.576C143.509 246.576 143.747 246.476 143.939 246.277C144.134 246.078 144.231 245.827 144.231 245.523C144.231 245.219 144.134 244.97 143.939 244.775C143.747 244.572 143.509 244.471 143.224 244.471ZM145.984 245.332V246.986H145.512V244.06H145.984V244.555C146.206 244.184 146.553 243.998 147.026 243.998H147.104V244.521C147.044 244.499 146.975 244.488 146.896 244.488C146.637 244.488 146.422 244.568 146.249 244.73C146.073 244.895 145.984 245.095 145.984 245.332ZM147.622 246.986V244.06H148.095V244.55C148.327 244.182 148.674 243.998 149.136 243.998C149.474 243.998 149.753 244.109 149.974 244.33C150.2 244.548 150.312 244.825 150.312 245.163V246.986H149.839V245.287C149.839 245.05 149.759 244.852 149.597 244.69C149.44 244.529 149.243 244.448 149.006 244.448C148.751 244.448 148.536 244.531 148.359 244.696C148.183 244.861 148.095 245.062 148.095 245.298V246.986H147.622ZM151.574 246.986H151.101V244.06H151.574V246.986ZM151.101 243.582C151.041 243.518 151.011 243.439 151.011 243.345C151.011 243.251 151.041 243.175 151.101 243.115C151.165 243.051 151.243 243.019 151.337 243.019C151.431 243.019 151.51 243.051 151.574 243.115C151.637 243.175 151.669 243.251 151.669 243.345C151.669 243.439 151.637 243.518 151.574 243.582C151.51 243.642 151.431 243.672 151.337 243.672C151.243 243.672 151.165 243.642 151.101 243.582ZM152.37 246.986V244.06H152.843V244.55C153.076 244.182 153.423 243.998 153.884 243.998C154.222 243.998 154.501 244.109 154.723 244.33C154.948 244.548 155.06 244.825 155.06 245.163V246.986H154.588V245.287C154.588 245.05 154.507 244.852 154.346 244.69C154.188 244.529 153.991 244.448 153.755 244.448C153.5 244.448 153.284 244.531 153.108 244.696C152.931 244.861 152.843 245.062 152.843 245.298V246.986H152.37ZM157.138 247.048C156.729 247.048 156.386 246.904 156.108 246.615C155.834 246.326 155.697 245.962 155.697 245.523C155.697 245.084 155.834 244.722 156.108 244.437C156.382 244.144 156.725 243.998 157.138 243.998C157.577 243.998 157.933 244.158 158.207 244.476V244.06H158.68V246.863C158.68 247.279 158.537 247.624 158.252 247.898C157.963 248.176 157.612 248.314 157.2 248.314C156.915 248.314 156.646 248.243 156.395 248.101C156.151 247.958 155.973 247.778 155.86 247.56L156.333 247.408C156.412 247.536 156.528 247.639 156.682 247.718C156.84 247.8 157.007 247.842 157.183 247.842C157.472 247.842 157.716 247.748 157.914 247.56C158.113 247.373 158.211 247.14 158.207 246.863V246.57C157.933 246.889 157.577 247.048 157.138 247.048ZM157.188 244.471C156.907 244.471 156.669 244.572 156.474 244.775C156.282 244.974 156.187 245.223 156.187 245.523C156.187 245.823 156.282 246.075 156.474 246.277C156.673 246.476 156.911 246.576 157.188 246.576C157.474 246.576 157.712 246.476 157.903 246.277C158.098 246.078 158.196 245.827 158.196 245.523C158.196 245.219 158.098 244.97 157.903 244.775C157.712 244.572 157.474 244.471 157.188 244.471Z" fill="white"/>
<path d="M276.637 245.113L276.136 245.259C276.103 245.109 276.005 244.984 275.844 244.882C275.686 244.777 275.5 244.725 275.287 244.725C275.05 244.725 274.855 244.783 274.701 244.899C274.548 245.012 274.471 245.154 274.471 245.327C274.471 245.514 274.576 245.661 274.786 245.766C274.951 245.845 275.204 245.927 275.545 246.013C275.823 246.085 276.039 246.158 276.193 246.233C276.553 246.402 276.742 246.696 276.761 247.116C276.761 247.469 276.626 247.754 276.356 247.972C276.093 248.189 275.752 248.298 275.332 248.298C274.953 248.298 274.63 248.21 274.364 248.034C274.097 247.861 273.929 247.636 273.857 247.358L274.364 247.206C274.394 247.379 274.499 247.524 274.679 247.64C274.863 247.752 275.08 247.809 275.332 247.809C275.594 247.809 275.814 247.749 275.99 247.629C276.166 247.505 276.255 247.347 276.255 247.156C276.255 246.961 276.161 246.814 275.973 246.717C275.808 246.631 275.619 246.561 275.405 246.509L275.168 246.447L274.949 246.379L274.718 246.3C274.707 246.297 274.69 246.291 274.668 246.284C274.649 246.272 274.624 246.261 274.594 246.25C274.564 246.235 274.538 246.222 274.516 246.21C274.422 246.165 274.311 246.085 274.184 245.968C274.056 245.841 273.981 245.638 273.959 245.361C273.959 245.027 274.082 244.757 274.33 244.55C274.581 244.34 274.898 244.235 275.281 244.235C275.626 244.235 275.921 244.318 276.165 244.483C276.412 244.644 276.57 244.854 276.637 245.113ZM277.1 245.726V245.31H277.573V244.725H278.046V245.31H278.862V245.726H278.046V247.319C278.046 247.45 278.085 247.561 278.164 247.651C278.247 247.737 278.348 247.78 278.468 247.78H278.862V248.236H278.434C278.19 248.236 277.986 248.154 277.821 247.989C277.656 247.824 277.573 247.619 277.573 247.375V245.726H277.1ZM280.721 245.248C281.16 245.248 281.517 245.408 281.79 245.726V245.31H282.263V248.236H281.79V247.82C281.517 248.139 281.16 248.298 280.721 248.298C280.312 248.298 279.969 248.154 279.691 247.865C279.417 247.576 279.281 247.212 279.281 246.773C279.281 246.334 279.417 245.972 279.691 245.687C279.965 245.394 280.309 245.248 280.721 245.248ZM280.772 245.721C280.49 245.721 280.252 245.822 280.057 246.025C279.866 246.224 279.77 246.473 279.77 246.773C279.77 247.073 279.866 247.325 280.057 247.527C280.256 247.726 280.494 247.826 280.772 247.826C281.057 247.826 281.295 247.726 281.487 247.527C281.682 247.328 281.779 247.077 281.779 246.773C281.779 246.469 281.682 246.22 281.487 246.025C281.295 245.822 281.057 245.721 280.772 245.721ZM283.06 248.236V244.016H283.532V248.236H283.06ZM285.463 248.236H284.872L283.555 246.723L284.759 245.31H285.339L284.14 246.723L285.463 248.236ZM286.429 248.236H285.956V245.31H286.429V248.236ZM285.956 244.832C285.896 244.768 285.866 244.689 285.866 244.595C285.866 244.501 285.896 244.425 285.956 244.365C286.02 244.301 286.098 244.269 286.192 244.269C286.286 244.269 286.365 244.301 286.429 244.365C286.492 244.425 286.524 244.501 286.524 244.595C286.524 244.689 286.492 244.768 286.429 244.832C286.365 244.892 286.286 244.922 286.192 244.922C286.098 244.922 286.02 244.892 285.956 244.832ZM287.225 248.236V245.31H287.698V245.8C287.931 245.432 288.278 245.248 288.739 245.248C289.077 245.248 289.356 245.359 289.578 245.58C289.803 245.798 289.915 246.075 289.915 246.413V248.236H289.443V246.537C289.443 246.3 289.362 246.102 289.201 245.94C289.043 245.779 288.846 245.698 288.61 245.698C288.355 245.698 288.139 245.781 287.963 245.946C287.786 246.111 287.698 246.312 287.698 246.548V248.236H287.225ZM291.993 248.298C291.584 248.298 291.241 248.154 290.963 247.865C290.689 247.576 290.552 247.212 290.552 246.773C290.552 246.334 290.689 245.972 290.963 245.687C291.237 245.394 291.58 245.248 291.993 245.248C292.432 245.248 292.788 245.408 293.062 245.726V245.31H293.535V248.113C293.535 248.529 293.392 248.874 293.107 249.148C292.818 249.426 292.467 249.564 292.055 249.564C291.77 249.564 291.501 249.493 291.25 249.351C291.006 249.208 290.828 249.028 290.715 248.81L291.188 248.658C291.267 248.786 291.383 248.889 291.537 248.968C291.695 249.05 291.862 249.092 292.038 249.092C292.327 249.092 292.571 248.998 292.769 248.81C292.968 248.623 293.066 248.39 293.062 248.113V247.82C292.788 248.139 292.432 248.298 291.993 248.298ZM292.044 245.721C291.762 245.721 291.524 245.822 291.329 246.025C291.137 246.224 291.042 246.473 291.042 246.773C291.042 247.073 291.137 247.325 291.329 247.527C291.528 247.726 291.766 247.826 292.044 247.826C292.329 247.826 292.567 247.726 292.758 247.527C292.953 247.328 293.051 247.077 293.051 246.773C293.051 246.469 292.953 246.22 292.758 246.025C292.567 245.822 292.329 245.721 292.044 245.721Z" fill="white"/>
<defs>
<filter id="filter0_b_43_1636" x="-5.62759" y="-5.62759" width="395.182" height="283.255" filterUnits="userSpaceOnUse" color-interpolation-filters="sRGB">
<feFlood flood-opacity="0" result="BackgroundImageFix"/>
<feGaussianBlur in="BackgroundImageFix" stdDeviation="2.81379"/>
<feComposite in2="SourceAlpha" operator="in" result="effect1_backgroundBlur_43_1636"/>
<feBlend mode="normal" in="SourceGraphic" in2="effect1_backgroundBlur_43_1636" result="shape"/>
</filter>
<radialGradient id="paint0_radial_43_1636" cx="0" cy="0" r="1" gradientUnits="userSpaceOnUse" gradientTransform="translate(204.469 114.74) rotate(92.3003) scale(148 208.901)">
<stop stop-color="#40539D"/>
<stop offset="1" stop-color="#605CFF" stop-opacity="0"/>
</radialGradient>
</defs>
</svg>
